<mxfile host="app.diagrams.net" agent="Mozilla/5.0 (X11; Ubuntu; Linux x86_64; rv:143.0) Gecko/20100101 Firefox/143.0" version="28.2.4">
  <diagram name="Página-1" id="UT_l-iig5S8QLGLf5QIV">
    <mxGraphModel grid="1" page="1" gridSize="10" guides="1" tooltips="1" connect="1" arrows="1" fold="1" pageScale="1" pageWidth="827" pageHeight="1169" math="0" shadow="0">
      <root>
        <mxCell id="0" />
        <mxCell id="1" parent="0" />
        <mxCell id="nyyrYH2kMv6zdaEJDTRp-4" style="edgeStyle=orthogonalEdgeStyle;rounded=0;orthogonalLoop=1;jettySize=auto;html=1;exitX=0.5;exitY=1;exitDx=0;exitDy=0;entryX=0.5;entryY=0;entryDx=0;entryDy=0;" edge="1" parent="1" source="nyyrYH2kMv6zdaEJDTRp-1" target="nyyrYH2kMv6zdaEJDTRp-2">
          <mxGeometry relative="1" as="geometry" />
        </mxCell>
        <mxCell id="nyyrYH2kMv6zdaEJDTRp-1" value="&lt;div&gt;Multa no pagada con&amp;nbsp;&lt;/div&gt;&lt;div&gt;mas de 30 días&lt;/div&gt;" style="rounded=0;whiteSpace=wrap;html=1;" vertex="1" parent="1">
          <mxGeometry x="343" y="130" width="140" height="60" as="geometry" />
        </mxCell>
        <mxCell id="nyyrYH2kMv6zdaEJDTRp-5" style="edgeStyle=orthogonalEdgeStyle;rounded=0;orthogonalLoop=1;jettySize=auto;html=1;exitX=0.5;exitY=1;exitDx=0;exitDy=0;entryX=0.5;entryY=0;entryDx=0;entryDy=0;" edge="1" parent="1" source="nyyrYH2kMv6zdaEJDTRp-2" target="nyyrYH2kMv6zdaEJDTRp-3">
          <mxGeometry relative="1" as="geometry" />
        </mxCell>
        <mxCell id="nyyrYH2kMv6zdaEJDTRp-2" value="Pierde descuentos" style="rounded=0;whiteSpace=wrap;html=1;" vertex="1" parent="1">
          <mxGeometry x="343" y="240" width="140" height="60" as="geometry" />
        </mxCell>
        <mxCell id="nyyrYH2kMv6zdaEJDTRp-7" style="edgeStyle=orthogonalEdgeStyle;rounded=0;orthogonalLoop=1;jettySize=auto;html=1;exitX=0.5;exitY=1;exitDx=0;exitDy=0;entryX=0.5;entryY=0;entryDx=0;entryDy=0;" edge="1" parent="1" source="nyyrYH2kMv6zdaEJDTRp-3" target="nyyrYH2kMv6zdaEJDTRp-6">
          <mxGeometry relative="1" as="geometry" />
        </mxCell>
        <mxCell id="nyyrYH2kMv6zdaEJDTRp-3" value="Registra adeudos" style="rounded=0;whiteSpace=wrap;html=1;" vertex="1" parent="1">
          <mxGeometry x="343" y="350" width="140" height="60" as="geometry" />
        </mxCell>
        <mxCell id="nyyrYH2kMv6zdaEJDTRp-10" style="edgeStyle=orthogonalEdgeStyle;rounded=0;orthogonalLoop=1;jettySize=auto;html=1;exitX=0;exitY=0.5;exitDx=0;exitDy=0;entryX=0.5;entryY=0;entryDx=0;entryDy=0;" edge="1" parent="1" source="nyyrYH2kMv6zdaEJDTRp-6" target="nyyrYH2kMv6zdaEJDTRp-8">
          <mxGeometry relative="1" as="geometry" />
        </mxCell>
        <mxCell id="nyyrYH2kMv6zdaEJDTRp-12" value="Sí" style="edgeLabel;html=1;align=center;verticalAlign=middle;resizable=0;points=[];" connectable="0" vertex="1" parent="nyyrYH2kMv6zdaEJDTRp-10">
          <mxGeometry x="0.5575" y="1" relative="1" as="geometry">
            <mxPoint as="offset" />
          </mxGeometry>
        </mxCell>
        <mxCell id="nyyrYH2kMv6zdaEJDTRp-11" style="edgeStyle=orthogonalEdgeStyle;rounded=0;orthogonalLoop=1;jettySize=auto;html=1;exitX=1;exitY=0.5;exitDx=0;exitDy=0;entryX=0.5;entryY=0;entryDx=0;entryDy=0;" edge="1" parent="1" source="nyyrYH2kMv6zdaEJDTRp-6" target="nyyrYH2kMv6zdaEJDTRp-9">
          <mxGeometry relative="1" as="geometry" />
        </mxCell>
        <mxCell id="nyyrYH2kMv6zdaEJDTRp-13" value="No" style="edgeLabel;html=1;align=center;verticalAlign=middle;resizable=0;points=[];" connectable="0" vertex="1" parent="nyyrYH2kMv6zdaEJDTRp-11">
          <mxGeometry x="0.5398" y="1" relative="1" as="geometry">
            <mxPoint as="offset" />
          </mxGeometry>
        </mxCell>
        <mxCell id="nyyrYH2kMv6zdaEJDTRp-6" value="¿Residencia?" style="rhombus;whiteSpace=wrap;html=1;" vertex="1" parent="1">
          <mxGeometry x="363" y="460" width="100" height="100" as="geometry" />
        </mxCell>
        <mxCell id="nyyrYH2kMv6zdaEJDTRp-19" style="edgeStyle=orthogonalEdgeStyle;rounded=0;orthogonalLoop=1;jettySize=auto;html=1;exitX=0.5;exitY=1;exitDx=0;exitDy=0;entryX=0.5;entryY=0;entryDx=0;entryDy=0;" edge="1" parent="1" source="nyyrYH2kMv6zdaEJDTRp-8" target="nyyrYH2kMv6zdaEJDTRp-14">
          <mxGeometry relative="1" as="geometry" />
        </mxCell>
        <mxCell id="nyyrYH2kMv6zdaEJDTRp-8" value="Sanciones mayores" style="rounded=0;whiteSpace=wrap;html=1;" vertex="1" parent="1">
          <mxGeometry x="199" y="590" width="140" height="60" as="geometry" />
        </mxCell>
        <mxCell id="nyyrYH2kMv6zdaEJDTRp-16" style="edgeStyle=orthogonalEdgeStyle;rounded=0;orthogonalLoop=1;jettySize=auto;html=1;exitX=0.5;exitY=1;exitDx=0;exitDy=0;entryX=0.5;entryY=0;entryDx=0;entryDy=0;" edge="1" parent="1" source="nyyrYH2kMv6zdaEJDTRp-9" target="nyyrYH2kMv6zdaEJDTRp-15">
          <mxGeometry relative="1" as="geometry" />
        </mxCell>
        <mxCell id="nyyrYH2kMv6zdaEJDTRp-9" value="Bloqueo de trámites" style="rounded=0;whiteSpace=wrap;html=1;" vertex="1" parent="1">
          <mxGeometry x="489" y="590" width="140" height="60" as="geometry" />
        </mxCell>
        <mxCell id="nyyrYH2kMv6zdaEJDTRp-20" style="edgeStyle=orthogonalEdgeStyle;rounded=0;orthogonalLoop=1;jettySize=auto;html=1;exitX=0.5;exitY=1;exitDx=0;exitDy=0;entryX=0.5;entryY=0;entryDx=0;entryDy=0;" edge="1" parent="1" source="nyyrYH2kMv6zdaEJDTRp-14" target="nyyrYH2kMv6zdaEJDTRp-17">
          <mxGeometry relative="1" as="geometry" />
        </mxCell>
        <mxCell id="nyyrYH2kMv6zdaEJDTRp-14" value="Mayor inmovilización" style="rounded=0;whiteSpace=wrap;html=1;" vertex="1" parent="1">
          <mxGeometry x="199" y="700" width="140" height="60" as="geometry" />
        </mxCell>
        <mxCell id="nyyrYH2kMv6zdaEJDTRp-18" style="edgeStyle=orthogonalEdgeStyle;rounded=0;orthogonalLoop=1;jettySize=auto;html=1;exitX=0;exitY=0.5;exitDx=0;exitDy=0;entryX=1;entryY=0.5;entryDx=0;entryDy=0;" edge="1" parent="1" source="nyyrYH2kMv6zdaEJDTRp-15" target="nyyrYH2kMv6zdaEJDTRp-17">
          <mxGeometry relative="1" as="geometry" />
        </mxCell>
        <mxCell id="nyyrYH2kMv6zdaEJDTRp-21" value="Sí" style="edgeLabel;html=1;align=center;verticalAlign=middle;resizable=0;points=[];" connectable="0" vertex="1" parent="nyyrYH2kMv6zdaEJDTRp-18">
          <mxGeometry x="-0.0824" y="1" relative="1" as="geometry">
            <mxPoint as="offset" />
          </mxGeometry>
        </mxCell>
        <mxCell id="nyyrYH2kMv6zdaEJDTRp-25" style="edgeStyle=orthogonalEdgeStyle;rounded=0;orthogonalLoop=1;jettySize=auto;html=1;exitX=0.5;exitY=1;exitDx=0;exitDy=0;entryX=0.5;entryY=0;entryDx=0;entryDy=0;" edge="1" parent="1" source="nyyrYH2kMv6zdaEJDTRp-15" target="nyyrYH2kMv6zdaEJDTRp-24">
          <mxGeometry relative="1" as="geometry" />
        </mxCell>
        <mxCell id="nyyrYH2kMv6zdaEJDTRp-15" value="&lt;div&gt;¿Sigue sin&lt;/div&gt;&lt;div&gt;pagar?&lt;/div&gt;" style="rhombus;whiteSpace=wrap;html=1;" vertex="1" parent="1">
          <mxGeometry x="509" y="790" width="100" height="100" as="geometry" />
        </mxCell>
        <mxCell id="nyyrYH2kMv6zdaEJDTRp-23" style="edgeStyle=orthogonalEdgeStyle;rounded=0;orthogonalLoop=1;jettySize=auto;html=1;exitX=0.5;exitY=1;exitDx=0;exitDy=0;entryX=0.5;entryY=0;entryDx=0;entryDy=0;" edge="1" parent="1" source="nyyrYH2kMv6zdaEJDTRp-17" target="nyyrYH2kMv6zdaEJDTRp-22">
          <mxGeometry relative="1" as="geometry" />
        </mxCell>
        <mxCell id="nyyrYH2kMv6zdaEJDTRp-17" value="Traslado depósito" style="rounded=0;whiteSpace=wrap;html=1;" vertex="1" parent="1">
          <mxGeometry x="199" y="810" width="140" height="60" as="geometry" />
        </mxCell>
        <mxCell id="nyyrYH2kMv6zdaEJDTRp-22" value="Costos adicionales" style="rounded=0;whiteSpace=wrap;html=1;" vertex="1" parent="1">
          <mxGeometry x="199" y="920" width="140" height="60" as="geometry" />
        </mxCell>
        <mxCell id="nyyrYH2kMv6zdaEJDTRp-24" value="Se regulariza" style="rounded=0;whiteSpace=wrap;html=1;" vertex="1" parent="1">
          <mxGeometry x="489" y="950" width="140" height="60" as="geometry" />
        </mxCell>
      </root>
    </mxGraphModel>
  </diagram>
</mxfile>
